<svg width="160" height="160" viewBox="0 0 160 160" fill="none" xmlns="http://www.w3.org/2000/svg">
  <defs>
    <linearGradient id="bg" x1="22" y1="18" x2="139" y2="146" gradientUnits="userSpaceOnUse">
      <stop stop-color="#0F766E"/>
      <stop offset="0.52" stop-color="#14B8A6"/>
      <stop offset="1" stop-color="#2563EB"/>
    </linearGradient>
    <radialGradient id="glow" cx="0" cy="0" r="1" gradientUnits="userSpaceOnUse" gradientTransform="translate(121 38) rotate(133.21) scale(92.6243)">
      <stop stop-color="#93C5FD" stop-opacity="0.72"/>
      <stop offset="1" stop-color="#93C5FD" stop-opacity="0"/>
    </radialGradient>
    <linearGradient id="chip" x1="90" y1="94" x2="131" y2="135" gradientUnits="userSpaceOnUse">
      <stop stop-color="#F8FAFC"/>
      <stop offset="1" stop-color="#BFDBFE"/>
    </linearGradient>
  </defs>

  <rect x="10" y="10" width="140" height="140" rx="36" fill="url(#bg)"/>
  <rect x="10" y="10" width="140" height="140" rx="36" fill="url(#glow)"/>
  <path d="M47 48C47 40.8203 52.8203 35 60 35H102C109.18 35 115 40.8203 115 48V84C115 91.1797 109.18 97 102 97H79.5L61.5 112.5C59.6694 114.076 56.8687 112.775 56.8687 110.359V97H60C52.8203 97 47 91.1797 47 84V48Z" fill="#F8FAFC"/>
  <path d="M63 58H99" stroke="#0F766E" stroke-width="8" stroke-linecap="round"/>
  <path d="M63 75H89" stroke="#38BDF8" stroke-width="8" stroke-linecap="round"/>
  <path d="M102.5 94C117.136 94 129 105.864 129 120.5C129 123.708 128.43 126.784 127.383 129.632C126.751 131.351 124.576 131.842 123.203 130.63L116.533 124.743C114.932 125.231 113.234 125.5 111.473 125.5C101.838 125.5 94.0273 117.689 94.0273 108.054C94.0273 102.426 96.6957 97.4201 100.836 94.2222C101.347 93.8277 101.853 94 102.5 94Z" fill="url(#chip)"/>
  <circle cx="111.5" cy="109.5" r="6.5" fill="#0F766E"/>
  <circle cx="97.5" cy="122.5" r="4.5" fill="#2563EB"/>
  <path d="M103 118L108 113" stroke="#2563EB" stroke-width="4.5" stroke-linecap="round"/>
  <path d="M116 115.5L121 120.5" stroke="#14B8A6" stroke-width="4.5" stroke-linecap="round"/>
</svg>